# xmcd
#
# Track frame offsets: 
#        150
#        19107
#        34305
#        49349
#        67369
#        80360
#        104796
#        119423
#        138206
#        158255
#        170031
#        191292
#
# Disc length: 2794 seconds
#
# Revision: 0
# Processed by: cddbd v1.5.2PL0 Copyright (c) Steve Scherf et al.
# Submitted via: ExactAudioCopyFreeDBPlugin 1.0
#
DISCID=a60ae80c
DTITLE=Hand Picked - Touch of Grace
DYEAR=2011
DGENRE=Gospel
TTITLE0=When You Gonna Bow
TTITLE1=His Life Is an Open Book
TTITLE2=Touch of Grace
TTITLE3=When We All Fly Away
TTITLE4=Love Divine
TTITLE5=Holy, Holy
TTITLE6=Lead Me To Calvary
TTITLE7=Rock of Ages
TTITLE8=In Good Hands
TTITLE9=A Place In the Choir
TTITLE10=Mountain Railroad
TTITLE11=Take the Name of Jesus With You
EXTD=
EXTT0=
EXTT1=
EXTT2=
EXTT3=
EXTT4=
EXTT5=
EXTT6=
EXTT7=
EXTT8=
EXTT9=
EXTT10=
EXTT11=
PLAYORDER=
